<svg width="12" height="12" viewBox="0 0 12 12" fill="none" xmlns="http://www.w3.org/2000/svg">
<path d="M5.5725 7.3275L4.74 8.16C4.5645 8.3355 4.2855 8.3355 4.1055 8.1645C4.056 8.115 4.0065 8.07 3.957 8.0205C3.4935 7.5525 3.075 7.062 2.7015 6.549C2.3325 6.036 2.0355 5.523 1.8195 5.0145C1.608 4.5015 1.5 4.011 1.5 3.543C1.5 3.237 1.554 2.9445 1.662 2.6745C1.77 2.4 1.941 2.148 2.1795 1.923C2.4675 1.6395 2.7825 1.5 3.1155 1.5C3.2415 1.5 3.3675 1.527 3.48 1.581C3.597 1.635 3.7005 1.716 3.7815 1.833L4.8255 3.3045C4.9065 3.417 4.965 3.5205 5.0055 3.6195C5.046 3.714 5.0685 3.8085 5.0685 3.894C5.0685 4.002 5.037 4.11 4.974 4.2135C4.9155 4.317 4.83 4.425 4.722 4.533L4.38 4.8885C4.3305 4.938 4.308 4.9965 4.308 5.0685C4.308 5.1045 4.3125 5.136 4.3215 5.172C4.335 5.208 4.3485 5.235 4.3575 5.262C4.4385 5.4105 4.578 5.604 4.776 5.838C4.9785 6.072 5.1945 6.3105 5.4285 6.549C5.4735 6.594 5.523 6.639 5.568 6.684C5.748 6.8595 5.7525 7.1475 5.5725 7.3275Z" fill="#F8F9FA"/>
<path d="M10.4864 8.84847C10.4864 8.97447 10.4639 9.10497 10.4189 9.23097C10.4054 9.26697 10.3919 9.30297 10.3739 9.33897C10.2974 9.50097 10.1984 9.65397 10.0679 9.79797C9.84742 10.041 9.60442 10.2165 9.32992 10.329C9.32542 10.329 9.32092 10.3335 9.31642 10.3335C9.05092 10.4415 8.76292 10.5 8.45242 10.5C7.99342 10.5 7.50292 10.392 6.98542 10.1715C6.46792 9.95097 5.95042 9.65397 5.43742 9.28047C5.26192 9.14997 5.08642 9.01947 4.91992 8.87997L6.39142 7.40847C6.51742 7.50297 6.62992 7.57497 6.72442 7.62447C6.74692 7.63347 6.77392 7.64697 6.80542 7.66047C6.84142 7.67397 6.87742 7.67847 6.91792 7.67847C6.99442 7.67847 7.05292 7.65147 7.10242 7.60197L7.44442 7.26447C7.55692 7.15197 7.66492 7.06647 7.76842 7.01247C7.87192 6.94947 7.97542 6.91797 8.08792 6.91797C8.17342 6.91797 8.26342 6.93597 8.36242 6.97647C8.46142 7.01697 8.56492 7.07547 8.67742 7.15197L10.1669 8.20947C10.2839 8.29047 10.3649 8.38497 10.4144 8.49747C10.4594 8.60997 10.4864 8.72247 10.4864 8.84847Z" fill="#F8F9FA"/>
</svg>
