<svg width="21" height="21" viewBox="0 0 21 21" fill="none" xmlns="http://www.w3.org/2000/svg">
<path d="M14.6283 0.00864792H6.21207C2.55634 0.00864792 0.376953 2.18803 0.376953 5.84377V14.25C0.376953 17.9157 2.55634 20.0951 6.21207 20.0951H14.6183C18.274 20.0951 20.4534 17.9157 20.4534 14.26V5.84377C20.4634 2.18803 18.284 0.00864792 14.6283 0.00864792ZM10.4202 13.9487C8.27094 13.9487 6.52341 12.2011 6.52341 10.0519C6.52341 7.90263 8.27094 6.15511 10.4202 6.15511C12.5694 6.15511 14.317 7.90263 14.317 10.0519C14.317 12.2011 12.5694 13.9487 10.4202 13.9487ZM16.3658 4.90975C16.3156 5.03027 16.2453 5.14074 16.1549 5.24118C16.0544 5.33156 15.944 5.40187 15.8235 5.45208C15.7029 5.5023 15.5724 5.53243 15.4418 5.53243C15.1706 5.53243 14.9196 5.432 14.7287 5.24118C14.6384 5.14074 14.568 5.03027 14.5178 4.90975C14.4676 4.78923 14.4375 4.65867 14.4375 4.52811C14.4375 4.39754 14.4676 4.26698 14.5178 4.14646C14.568 4.0159 14.6384 3.91547 14.7287 3.81504C14.9597 3.58404 15.3112 3.47357 15.6326 3.54387C15.7029 3.55391 15.7632 3.574 15.8235 3.60413C15.8837 3.62421 15.944 3.65434 16.0042 3.69452C16.0544 3.72465 16.1047 3.77486 16.1549 3.81504C16.2453 3.91547 16.3156 4.0159 16.3658 4.14646C16.416 4.26698 16.4461 4.39754 16.4461 4.52811C16.4461 4.65867 16.416 4.78923 16.3658 4.90975Z" fill="#212529"/>
</svg>
