<svg width="26" height="25" viewBox="0 0 26 25" fill="none" xmlns="http://www.w3.org/2000/svg">
<path d="M2.85225 4.92243C3.67364 1.36993 9.02292 1.36993 9.83404 4.92243C10.3166 7.0067 8.99212 8.77268 7.84218 9.87128C7.00026 10.6721 5.67577 10.6619 4.83385 9.87128C3.69417 8.77268 2.36969 7.0067 2.85225 4.92243Z" stroke="#212529" stroke-width="1.5401"/>
<path d="M16.1998 17.2432C17.0212 13.6907 22.4013 13.6907 23.2227 17.2432C23.7053 19.3275 22.3808 21.0935 21.2206 22.1921C20.3787 22.9929 19.0439 22.9827 18.202 22.1921C17.0418 21.0935 15.7173 19.3275 16.1998 17.2432Z" stroke="#212529" stroke-width="1.5401"/>
<path d="M13.0476 5.33325H15.7992C17.6987 5.33325 18.5817 7.68447 17.1545 8.93709L8.95093 16.114C7.52377 17.3563 8.40676 19.7075 10.296 19.7075H13.0476" stroke="#212529" stroke-width="1.5401" stroke-linecap="round" stroke-linejoin="round"/>
<path d="M6.35967 5.84662H6.37153" stroke="#212529" stroke-width="2.05347" stroke-linecap="round" stroke-linejoin="round"/>
<path d="M19.7073 18.1674H19.7192" stroke="#212529" stroke-width="2.05347" stroke-linecap="round" stroke-linejoin="round"/>
</svg>
