<svg width="60" height="86" viewBox="0 0 60 86" fill="none" xmlns="http://www.w3.org/2000/svg">
<path d="M30.1694 0.938721C46.6097 0.938721 59.9378 14.2661 59.938 30.7063C59.938 53.2138 30.1694 72.8176 30.1694 72.8176C30.0975 72.7667 0.401855 51.7362 0.401855 30.7063C0.402049 14.2662 13.7293 0.938915 30.1694 0.938721ZM30.896 19.8157C25.2825 19.8159 20.7321 24.3662 20.7319 29.9797C20.7319 35.5934 25.2824 40.1446 30.896 40.1448C36.5098 40.1448 41.061 35.5935 41.061 29.9797C41.0608 24.3661 36.5097 19.8157 30.896 19.8157Z" fill="#D90429"/>
<ellipse cx="30.8971" cy="81.3534" rx="17.4251" ry="4.35628" fill="url(#paint0_radial_52_43)"/>
<defs>
<radialGradient id="paint0_radial_52_43" cx="0" cy="0" r="1" gradientUnits="userSpaceOnUse" gradientTransform="translate(30.8971 81.3534) scale(17.4251 4.35628)">
<stop stop-opacity="0.29"/>
<stop offset="0.85" stop-opacity="0"/>
</radialGradient>
</defs>
</svg>
