<svg width="21" height="21" viewBox="0 0 21 21" fill="none" xmlns="http://www.w3.org/2000/svg">
<path d="M10.2642 0.0518799C4.74166 0.0518799 0.26416 4.52938 0.26416 10.0519C0.26416 15.5744 4.74166 20.0519 10.2642 20.0519C15.7867 20.0519 20.2642 15.5744 20.2642 10.0519C20.2642 4.52938 15.7867 0.0518799 10.2642 0.0518799ZM15.1758 6.90271L13.5342 14.636C13.4133 15.1844 13.0867 15.3177 12.6308 15.0594L10.1308 13.2177L8.92583 14.3794C8.80916 14.5294 8.62833 14.6252 8.42583 14.6252C8.42416 14.6252 8.42333 14.6252 8.42166 14.6252L8.59916 12.0802L13.2325 7.89521C13.4325 7.71771 13.1875 7.61688 12.9217 7.79438L7.19749 11.3994L4.73083 10.6294C4.19749 10.4602 4.18249 10.096 4.84333 9.83438L14.4817 6.11938C14.93 5.95605 15.32 6.22605 15.175 6.90355L15.1758 6.90271Z" fill="white"/>
</svg>
