<svg width="21" height="21" viewBox="0 0 21 21" fill="none" xmlns="http://www.w3.org/2000/svg">
<path d="M20.0755 9.45931C19.734 3.63423 14.4412 -0.855088 8.34499 0.149236C4.14692 0.84222 0.782438 4.24686 0.129627 8.44493C-0.252016 10.8754 0.250168 13.1753 1.34488 15.0735L0.451018 18.3978C0.250153 19.151 0.943117 19.834 1.68632 19.6231L4.96042 18.7192C6.44682 19.5929 8.1843 20.0951 10.0423 20.0951C15.7067 20.0951 20.4069 15.1036 20.0755 9.45931ZM14.9535 13.7879C14.8631 13.9687 14.7526 14.1395 14.612 14.3002C14.3609 14.5713 14.0897 14.7722 13.7884 14.8927C13.4871 15.0233 13.1557 15.0835 12.8042 15.0835C12.292 15.0835 11.7396 14.963 11.1671 14.7119C10.5846 14.4609 10.0122 14.1294 9.43973 13.7176C8.85722 13.2958 8.31487 12.8238 7.79262 12.3116C7.27037 11.7893 6.80836 11.2369 6.38655 10.6645C5.97477 10.092 5.64336 9.51956 5.40233 8.94709C5.16129 8.37463 5.04079 7.82227 5.04079 7.30002C5.04079 6.95855 5.10104 6.62712 5.22156 6.32582C5.34208 6.01448 5.53291 5.73327 5.80408 5.48219C6.12546 5.16081 6.47696 5.01016 6.84856 5.01016C6.98916 5.01016 7.12974 5.04029 7.2603 5.10055C7.39086 5.1608 7.51141 5.25119 7.6018 5.38175L8.76679 7.02883C8.85718 7.15939 8.92749 7.26987 8.96766 7.38035C9.01788 7.49082 9.03797 7.59125 9.03797 7.69169C9.03797 7.81221 8.99782 7.93274 8.92751 8.05326C8.85721 8.17378 8.76679 8.29428 8.64627 8.4148L8.26463 8.81653C8.20437 8.87679 8.18432 8.93706 8.18432 9.0174C8.18432 9.05758 8.19433 9.09774 8.20437 9.13792C8.22445 9.17809 8.23454 9.20823 8.24458 9.23835C8.33497 9.40909 8.49563 9.61998 8.71658 9.88111C8.94758 10.1422 9.18866 10.4134 9.44978 10.6745C9.72095 10.9457 9.98206 11.1867 10.2532 11.4177C10.5144 11.6387 10.7353 11.7893 10.906 11.8797C10.9361 11.8898 10.9663 11.9098 10.9964 11.9199C11.0366 11.94 11.0768 11.94 11.127 11.94C11.2174 11.94 11.2777 11.9099 11.3379 11.8496L11.7195 11.468C11.8501 11.3374 11.9706 11.247 12.0811 11.1867C12.2016 11.1164 12.3121 11.0763 12.4426 11.0763C12.5431 11.0763 12.6435 11.0963 12.754 11.1466C12.8645 11.1968 12.985 11.2571 13.1055 11.3474L14.7727 12.5325C14.9032 12.6229 14.9936 12.7334 15.0539 12.8539C15.1041 12.9845 15.1342 13.105 15.1342 13.2456C15.074 13.4163 15.0338 13.6072 14.9535 13.7879Z" fill="#F8F9FA"/>
</svg>
